<svg width="620" height="620" viewBox="0 0 620 620" fill="none" xmlns="http://www.w3.org/2000/svg">
<rect width="620" height="620" rx="150" fill="#EAEAEA"/>
<path d="M234.283 91.4539C166.623 113.502 113.432 166.968 91.522 234.766C48.115 369.259 125.421 495.484 241.862 532.001C245.858 533.241 249.992 530.209 249.992 525.937V476.605C249.992 473.987 248.476 471.782 245.996 470.817C182.883 445.049 138.098 383.039 138.098 310.694C138.098 215.336 215.68 137.893 310.9 137.893C395.371 137.893 465.649 198.525 480.669 278.724C480.945 280.102 479.842 281.205 478.602 281.205H452.145C445.944 281.205 440.845 286.303 440.845 292.504V325.99C440.845 333.844 443.601 340.596 451.456 340.596L483.701 340.459H513.121C513.159 340.459 513.19 340.428 513.19 340.39C513.19 340.352 513.221 340.321 513.259 340.321H537.305C540.337 340.321 542.679 337.84 542.679 334.947V310.832C543.093 158.011 394.682 39.3655 234.283 91.4539Z" fill="#1F1B4F"/>
<path d="M134.929 453.316L125.145 527.728C124.594 531.587 128.59 534.48 132.035 532.827L204.242 500.03C207.825 498.377 208.101 493.554 204.931 491.487L142.508 449.871C139.476 447.804 135.342 449.733 134.929 453.316Z" fill="#1F1B4F"/>
<path d="M416.317 340.871H366.709C363.264 340.871 360.508 338.115 360.508 334.67V285.062C360.508 281.617 363.264 278.861 366.709 278.861H416.317C419.762 278.861 422.518 281.617 422.518 285.062V334.67C422.656 338.115 419.762 340.871 416.317 340.871Z" fill="#F7B928"/>
<path d="M258.398 340.872H211.683C207.412 340.872 204.104 337.427 204.104 333.293V286.579C204.104 282.307 207.549 279 211.683 279H258.398C262.67 279 265.977 282.445 265.977 286.579V333.293C266.115 337.427 262.67 340.872 258.398 340.872Z" fill="#00B87A"/>
<path d="M337.357 340.872H289.265C285.407 340.872 282.375 337.703 282.375 333.982V285.89C282.375 282.032 285.544 279 289.265 279H337.357C341.216 279 344.247 282.169 344.247 285.89V333.982C344.385 337.841 341.216 340.872 337.357 340.872Z" fill="#E0245E"/>
<path d="M431.888 122.597C301.667 42.5352 123.905 96.8285 84.2185 260.673C67.4069 329.848 85.1831 403.158 131.484 457.313C223.396 564.659 371.394 565.073 463.444 485.011C466.613 482.255 466.2 477.156 462.617 474.952L420.588 449.183C418.384 447.805 415.627 447.943 413.56 449.459C358.578 489.834 282.237 495.346 220.778 457.451C139.614 407.43 114.259 300.772 164.142 219.746C208.376 147.814 296.982 119.703 373.047 148.917" fill="#1F1B4F"/>
</svg>
